<svg width="25" height="24" viewBox="0 0 25 24" fill="none" xmlns="http://www.w3.org/2000/svg">
<g clip-path="url(#clip0_2032_3120)">
<path d="M8.86104 0.789921C6.46307 1.6218 4.39506 3.20073 2.96077 5.2948C1.52649 7.38887 0.801526 9.88769 0.892371 12.4242C0.983217 14.9608 1.88508 17.4013 3.4655 19.3874C5.04591 21.3735 7.22158 22.8005 9.67292 23.4587C11.6603 23.9715 13.7424 23.994 15.7404 23.5243C17.5504 23.1177 19.2238 22.2481 20.5967 21.0005C22.0256 19.6624 23.0627 17.9602 23.5967 16.0768C24.177 14.0287 24.2803 11.8748 23.8985 9.78055H12.7385V14.4099H19.2017C19.0725 15.1483 18.7957 15.853 18.3878 16.4819C17.98 17.1107 17.4494 17.6509 16.8279 18.0699C16.0387 18.592 15.149 18.9432 14.216 19.1012C13.2803 19.2752 12.3205 19.2752 11.3848 19.1012C10.4364 18.9051 9.53923 18.5137 8.75042 17.9518C7.4832 17.0548 6.53168 15.7804 6.03167 14.3105C5.52319 12.8132 5.52319 11.1898 6.03167 9.69242C6.38759 8.64283 6.97598 7.68717 7.75292 6.8968C8.64203 5.9757 9.76766 5.31729 11.0063 4.99381C12.245 4.67034 13.5488 4.69429 14.7748 5.06305C15.7325 5.35703 16.6083 5.87068 17.3323 6.56305C18.061 5.83805 18.7885 5.11117 19.5148 4.38242C19.8898 3.99055 20.2985 3.61742 20.6679 3.21617C19.5627 2.18769 18.2654 1.3874 16.8504 0.861171C14.2736 -0.0744733 11.4541 -0.0996178 8.86104 0.789921Z" fill="white"/>
<path d="M8.8607 0.788879C11.4536 -0.101264 14.2731 -0.0767817 16.8501 0.858254C18.2654 1.38806 19.562 2.1922 20.6657 3.2245C20.2907 3.62575 19.8951 4.00075 19.5126 4.39075C18.7851 5.117 18.0582 5.84075 17.332 6.562C16.6079 5.86964 15.7321 5.35599 14.7745 5.062C13.5489 4.69196 12.2451 4.66662 11.0061 4.98877C9.76712 5.31092 8.64079 5.96812 7.7507 6.88825C6.97377 7.67863 6.38538 8.63428 6.02945 9.68388L2.14258 6.6745C3.53384 3.91556 5.94273 1.80517 8.8607 0.788879Z" fill="#E33629"/>
<path d="M1.1114 9.65703C1.32032 8.62164 1.66716 7.61896 2.14265 6.67578L6.02953 9.69266C5.52105 11.19 5.52105 12.8134 6.02953 14.3108C4.73453 15.3108 3.4389 16.3158 2.14265 17.3258C0.952308 14.9564 0.589275 12.2567 1.1114 9.65703Z" fill="#F8BD00"/>
<path d="M12.7381 9.77734H23.8981C24.2799 11.8716 24.1766 14.0255 23.5963 16.0736C23.0623 17.957 22.0252 19.6592 20.5963 20.9973C19.3419 20.0186 18.0819 19.0473 16.8275 18.0686C17.4494 17.6491 17.9802 17.1084 18.3881 16.4788C18.796 15.8493 19.0726 15.1439 19.2013 14.4048H12.7381C12.7363 12.8636 12.7381 11.3205 12.7381 9.77734Z" fill="#587DBD"/>
<path d="M2.14062 17.3255C3.43687 16.3255 4.7325 15.3205 6.0275 14.3105C6.52851 15.7809 7.48138 17.0553 8.75 17.9518C9.54127 18.511 10.4404 18.8993 11.39 19.0918C12.3257 19.2658 13.2855 19.2658 14.2213 19.0918C15.1542 18.9339 16.0439 18.5826 16.8331 18.0605C18.0875 19.0393 19.3475 20.0105 20.6019 20.9893C19.2292 22.2375 17.5558 23.1078 15.7456 23.5149C13.7476 23.9846 11.6655 23.9621 9.67813 23.4493C8.10632 23.0296 6.63814 22.2898 5.36563 21.2762C4.01874 20.2068 2.91867 18.8592 2.14062 17.3255Z" fill="#319F43"/>
</g>
<defs>
<clipPath id="clip0_2032_3120">
<rect width="24" height="24" fill="white" transform="translate(0.5)"/>
</clipPath>
</defs>
</svg>
