<svg width="20" height="20" viewBox="0 0 20 20" fill="none" xmlns="http://www.w3.org/2000/svg">
<path d="M10 13.125C9.1712 13.125 8.37634 12.7958 7.79029 12.2097C7.20424 11.6237 6.875 10.8288 6.875 10C6.875 9.1712 7.20424 8.37634 7.79029 7.79029C8.37634 7.20424 9.1712 6.875 10 6.875C10.8288 6.875 11.6237 7.20424 12.2097 7.79029C12.7958 8.37634 13.125 9.1712 13.125 10C13.125 10.8288 12.7958 11.6237 12.2097 12.2097C11.6237 12.7958 10.8288 13.125 10 13.125Z" fill="#2FBC8D"/>
<path d="M10.0003 3.54166C8.28747 3.54166 6.64477 4.22209 5.43359 5.43326C4.22242 6.64443 3.54199 8.28713 3.54199 9.99999C3.54199 11.7128 4.22242 13.3556 5.43359 14.5667C6.64477 15.7779 8.28747 16.4583 10.0003 16.4583C11.7132 16.4583 13.3559 15.7779 14.5671 14.5667C15.7782 13.3556 16.4587 11.7128 16.4587 9.99999C16.4587 8.28713 15.7782 6.64443 14.5671 5.43326C13.3559 4.22209 11.7132 3.54166 10.0003 3.54166ZM4.79199 9.99999C4.79199 8.61865 5.34073 7.29389 6.31748 6.31714C7.29423 5.34039 8.61899 4.79166 10.0003 4.79166C11.3817 4.79166 12.7064 5.34039 13.6832 6.31714C14.6599 7.29389 15.2087 8.61865 15.2087 9.99999C15.2087 11.3813 14.6599 12.7061 13.6832 13.6828C12.7064 14.6596 11.3817 15.2083 10.0003 15.2083C8.61899 15.2083 7.29423 14.6596 6.31748 13.6828C5.34073 12.7061 4.79199 11.3813 4.79199 9.99999Z" fill="#2FBC8D"/>
</svg>
