<svg width="40" height="40" viewBox="0 0 40 40" fill="none" xmlns="http://www.w3.org/2000/svg">
<path d="M34.8495 19.9998C34.8497 21.4209 34.4284 22.8102 33.6389 23.9919C32.8494 25.1737 31.7272 26.0947 30.4142 26.6386C29.1013 27.1825 27.6565 27.3247 26.2626 27.0474C24.8688 26.7701 23.5885 26.0857 22.5836 25.0807L22.525 25.0172L15.3568 16.9234C14.7508 16.3285 13.9825 15.9258 13.1485 15.7659C12.3144 15.606 11.4517 15.696 10.6687 16.0246C9.88559 16.3532 9.21701 16.9058 8.74683 17.613C8.27665 18.3202 8.02583 19.1505 8.02583 19.9998C8.02583 20.849 8.27665 21.6793 8.74683 22.3865C9.21701 23.0937 9.88559 23.6463 10.6687 23.9749C11.4517 24.3035 12.3144 24.3935 13.1485 24.2336C13.9825 24.0737 14.7508 23.671 15.3568 23.0761L15.7256 22.6594C15.8507 22.5178 16.0025 22.4023 16.1722 22.3195C16.3419 22.2366 16.5263 22.1879 16.7149 22.1763C16.9034 22.1647 17.0924 22.1903 17.271 22.2517C17.4496 22.3131 17.6144 22.4091 17.756 22.5342C17.8975 22.6593 18.013 22.8111 18.0959 22.9808C18.1788 23.1506 18.2274 23.335 18.239 23.5235C18.2506 23.712 18.225 23.901 18.1636 24.0796C18.1022 24.2583 18.0062 24.423 17.8811 24.5646L17.4799 25.0172L17.4213 25.0807C16.4164 26.0854 15.1361 26.7696 13.7424 27.0467C12.3487 27.3239 10.9041 27.1815 9.59134 26.6376C8.27854 26.0938 7.15648 25.1729 6.36704 23.9914C5.57761 22.8098 5.15625 21.4207 5.15625 19.9998C5.15625 18.5788 5.57761 17.1897 6.36704 16.0082C7.15648 14.8266 8.27854 13.9057 9.59134 13.3619C10.9041 12.818 12.3487 12.6757 13.7424 12.9528C15.1361 13.2299 16.4164 13.9141 17.4213 14.9188L17.4799 14.9823L24.6481 23.0761C25.2541 23.671 26.0224 24.0737 26.8564 24.2336C27.6905 24.3935 28.5531 24.3035 29.3362 23.9749C30.1193 23.6463 30.7879 23.0937 31.2581 22.3865C31.7282 21.6793 31.9791 20.849 31.9791 19.9998C31.9791 19.1505 31.7282 18.3202 31.2581 17.613C30.7879 16.9058 30.1193 16.3532 29.3362 16.0246C28.5531 15.696 27.6905 15.606 26.8564 15.7659C26.0224 15.9258 25.2541 16.3285 24.6481 16.9234L24.2793 17.3401C24.1542 17.4817 24.0024 17.5972 23.8327 17.6801C23.663 17.7629 23.4786 17.8116 23.29 17.8232C23.1015 17.8348 22.9125 17.8092 22.7339 17.7478C22.5552 17.6864 22.3905 17.5904 22.2489 17.4653C22.1074 17.3402 21.9919 17.1884 21.909 17.0187C21.8261 16.849 21.7775 16.6646 21.7659 16.476C21.7542 16.2875 21.7799 16.0985 21.8413 15.9199C21.9027 15.7412 21.9987 15.5765 22.1238 15.4349L22.525 14.9823L22.5836 14.9188C23.5885 13.9138 24.8688 13.2294 26.2626 12.9521C27.6565 12.6748 29.1013 12.8171 30.4142 13.3609C31.7272 13.9048 32.8494 14.8259 33.6389 16.0076C34.4284 17.1893 34.8497 18.5786 34.8495 19.9998Z" fill="white"/>
</svg>
