<svg width="40" height="40" viewBox="0 0 40 40" fill="none" xmlns="http://www.w3.org/2000/svg">
<path d="M17.8658 34C17.3061 34 16.8743 33.5177 16.9543 32.9731L18.3936 23.1089H12.7964C11.3891 23.1089 12.2687 21.9421 12.3007 21.8954C14.3156 18.4258 17.3381 13.2914 21.3361 6.44564C21.4437 6.266 21.6121 6.12828 21.8125 6.05599C22.0128 5.98371 22.2328 5.98134 22.4348 6.04929C22.6368 6.11725 22.8083 6.25131 22.9199 6.42858C23.0316 6.60586 23.0766 6.81536 23.0472 7.02131L21.6079 16.8855H27.2211C27.8607 16.8855 28.2125 17.1811 27.8607 17.9124C22.5994 26.843 19.545 32.0552 18.6654 33.5488C18.5055 33.8289 18.2017 34 17.8658 34Z" fill="#000066"/>
</svg>
