<svg width="20" height="20" viewBox="0 0 20 20" fill="none" xmlns="http://www.w3.org/2000/svg">
<path d="M10 13.125C9.1712 13.125 8.37634 12.7958 7.79029 12.2097C7.20424 11.6237 6.875 10.8288 6.875 10C6.875 9.1712 7.20424 8.37634 7.79029 7.79029C8.37634 7.20424 9.1712 6.875 10 6.875C10.8288 6.875 11.6237 7.20424 12.2097 7.79029C12.7958 8.37634 13.125 9.1712 13.125 10C13.125 10.8288 12.7958 11.6237 12.2097 12.2097C11.6237 12.7958 10.8288 13.125 10 13.125Z" fill="#2FBC8D"/>
<path d="M10.0003 3.5415C8.28747 3.5415 6.64477 4.22193 5.43359 5.43311C4.22242 6.64428 3.54199 8.28698 3.54199 9.99984C3.54199 11.7127 4.22242 13.3554 5.43359 14.5666C6.64477 15.7777 8.28747 16.4582 10.0003 16.4582C11.7132 16.4582 13.3559 15.7777 14.5671 14.5666C15.7782 13.3554 16.4587 11.7127 16.4587 9.99984C16.4587 8.28698 15.7782 6.64428 14.5671 5.43311C13.3559 4.22193 11.7132 3.5415 10.0003 3.5415ZM4.79199 9.99984C4.79199 8.6185 5.34073 7.29374 6.31748 6.31699C7.29423 5.34024 8.61899 4.7915 10.0003 4.7915C11.3817 4.7915 12.7064 5.34024 13.6832 6.31699C14.6599 7.29374 15.2087 8.6185 15.2087 9.99984C15.2087 11.3812 14.6599 12.7059 13.6832 13.6827C12.7064 14.6594 11.3817 15.2082 10.0003 15.2082C8.61899 15.2082 7.29423 14.6594 6.31748 13.6827C5.34073 12.7059 4.79199 11.3812 4.79199 9.99984Z" fill="#2FBC8D"/>
</svg>
